/* XPM */
static char * collapse_xpm[] = {
"11 11 2 1",
" 	c white",
".	c black",
"           ",
" ......... ",
" ......... ",
"           ",
"     .     ",
"    ...    ",
"   .....   ",
"  .......  ",
" ......... ",
"           ",
"           "};
