/* XPM */
static char * expand_xpm[] = {
"11 11 2 1",
" 	c white",
".	c black",
"           ",
" ......... ",
" ......... ",
"           ",
" ......... ",
"  .......  ",
"   .....   ",
"    ...    ",
"     .     ",
"           ",
"           "};
