/* XPM */
static char * mia_xpm[] = {
/* columns rows colors chars-per-pixel */
"72 31 36 1",
" 	c None",
".	c #70bc4e",
"X	c #6ebc51",
"o	c #6cbb54",
"O	c #4fb46e",
"+	c #49b274",
"@	c #46b276",
"#	c #1eac89",
"$	c #13ab8c",
"%	c #07ab8f",
"&	c #00a996",
"*	c #00a89a",
"=	c #00a79f",
"-	c #00a5a7",
";	c #24ad87",
":	c #00a4aa",
">	c #0098cf",
",	c #0095d6",
"<	c #52b46c",
"1	c #76be46",
"2	c #40b17a",
"3	c #009bc7",
"4	c #009cc4",
"5	c #65b95d",
"6	c #3eb07c",
"7	c #009ebe",
"8	c #7abf3e",
"9	c #0094db",
"0	c #5cb765",
"q	c #00a0b8",
"w	c #7bc03c",
"e	c #00a0b6",
"r	c #60b861",
"t	c #36af80",
"y	c #0093dd",
"u	c #80c131",
/* pixels */
"                                                                        ",
"                                                                        ",
"                                                                        ",
"          .Xo        O++@       #$%&&&**==-                             ",
"          .Xoo       O++@      ;#$%&&&**==---:              >,          ",
"         ..Xoo      <O++@      ;#$%&&&**==---:             >>,,         ",
"         ..Xoo      <O++@       #$%&&&**==---:            >>>,,         ",
"        1..Xoo      <O++@2           &**                 3>>>,,         ",
"        1..Xoo      <O++@2           &**                43>>>,,         ",
"        1..Xoo5    <<O++@2          &&**               443>>>,,         ",
"        1..Xoo5    <<O++@2          &&**               443>>>,,,        ",
"        1..Xoo5    <<O++@2          &&**               443>  ,,,        ",
"        1..Xoo5    <<O++@26         &&**              7443   ,,,        ",
"       81.. oo55   <<O++@26         &&**             7744    ,,,        ",
"       81.. oo55   <<O +@26         &&**             7744   >,,,9       ",
"       81.. oo55  0<<O  @26         &&**             77443>>>,,,9       ",
"       81.  oo55  0<<O  @26         &&**           q777443>>>,,,9       ",
"      w81.  oo55  0<<   @26         &&**          eq777443>>>,,,9       ",
"      w81.   o55r00<<   @266        &&**          eq777443>   ,,9       ",
"      w81.   o55r00<<    266        &&**          eq77        ,,9       ",
"      w81.   o55r00<<    266        &&**          eq77        ,,99      ",
"      w81     55r00<     266t       &&**         eeq7         ,,99      ",
"      w81     55r00<     266t       &&**         eeq7          ,99y     ",
"     uw81     55r00<     266t   #$%&&&**==---   eeeq           ,99y     ",
"     uw81     55r00<     266t   #$%&&&**==---   eeeq           ,99y     ",
"     uw81     55r00       66t   #$%&&&**==--     e               9      ",
"      w8        r0        66t                                           ",
"                                                                        ",
"                                                                        ",
"                                                                        ",
"                                                                        "};
