/* XPM */
static char * triple20_xpm[] = {
"32 32 6 1",
" 	c None",
".	c #000000",
"+	c #FFFF00",
"@	c #FFFFFF",
"#	c #808000",
"$	c #FF0000",
"                                ",
"  .                         .   ",
" .+.     .............     .+.  ",
".+@+.    .@.#.....+@+.    .+@+. ",
"+@+@+.   .+.+#.$..@+@.   .+@+@+.",
"@+@+@+.  .@.#+.$..+@+.  .+@+@+@.",
".@+@+@.  .+.+#.$$.@+@.  .@+@+@..",
"..@+@+@. .@.#+.$..+@+. .@+@+@..$",
"$...+@+. .+.+#.$$.@+@. .+@+...$.",
".$$..+@+..@.#+.$$.+@. .+@+..$$.+",
"+.$$..+@. .+.#.$$.@+. .@+..$$.+#",
"#+.$$..+.  .@+.$$.+.  .+..$$.+#+",
"+#+.$$...   .#.$$..   ...$$.+#+#",
"#+#+.$$..    ..$$.    ..$$.+#+#+",
".#+#+.$$..   ..$$.   ..$$.+#+#..",
"+..+#..$$..  ..$$.  ..$$..#+..+@",
".+@....$$$.. .$$$. ..$$$....@+..",
" ...  ..$$$...$$$...$$$..  ...  ",
"       ..$$$..$$$..$$$..        ",
"        ..$$$..$..$$$..         ",
"         ..$$..@..$$..          ",
"          ..@.@@@.@..           ",
"           ..@.@....            ",
"            ...@...             ",
"             ..@..              ",
"            ...@...             ",
"           .........            ",
"           ..  .  ..            ",
"          .    .    .           ",
"         .     .     .          ",
"                                ",
"                                "};
