/* XPM */
static char * yellow_pages_xpm[] = {
/* width height ncolors chars_per_pixel */
"32 32 2 1",
/* colors */
" 	c #FFD700",
".	c black",
/* pixels */
"                                ",
"       .........                ",
"       ..........               ",
"       ..........               ",
"       ...........              ",
"       ...........              ",
"       ............             ",
"       ............             ",
"       .............            ",
"        ............            ",
"                                ",
"       .............            ",
"       ..............           ",
"      ...  ..........           ",
"           ....  .....          ",
"          .....  .....          ",
"          ....    .....         ",
"          ...      ....         ",
"         ....       ....        ",
"        ....        ....        ",
"                     ....       ",
"       ....                     ",
"       ....           ....      ",
"      ...              ....     ",
"                         ..     ",
"        .....    ......         ",
"      ........  .........       ",
"    .....   ......    ......    ",
"   ....      ....        ...    ",
"              ...               ",
"                                ",
"                                "};
