/* XPM */
static char * anon_xpm[] = {
"15 15 5 1",
" 	c None",
".	c #6E6E6E",
"+	c #FFFF99",
"@	c #FFCCFF",
"#	c #000000",
"     .....     ",
"   ..+.@.+..   ",
"  .++.@@@.++.  ",
" .++.@@@@@.++. ",
" .+.@#####@.+. ",
".+.@@@@#@@@@.+.",
"..@@@@@#@@@@@..",
".@@@@@@#@@@@@@.",
"..@@@@@#@@@@@..",
".+.@@@@#@@@@.+.",
" .+.@#####@.+. ",
" .++.@@@@@.++. ",
"  .++.@@@.++.  ",
"   ..+.@.+..   ",
"     .....     "};
