/* XPM */
static char * attr_open_xpm[] = {
"16 16 157 2",
"  	c #6E6354",
". 	c #3A2818",
"X 	c #CEAE94",
"o 	c #E8B091",
"O 	c #F4AA86",
"+ 	c #EC9E78",
"@ 	c #E69872",
"# 	c #FAAC86",
"$ 	c #4A2602",
"% 	c #4A3C27",
"& 	c None",
"* 	c #504432",
"= 	c #8A664F",
"- 	c #FFC49F",
"; 	c #E6BEA6",
": 	c #A47E67",
"> 	c #E3BDA6",
", 	c #D7B19A",
"< 	c #C49E87",
"1 	c #B88E75",
"2 	c #FCD3AE",
"3 	c #FCCCA4",
"4 	c #220B00",
"5 	c #928C8C",
"6 	c #2C2617",
"7 	c #161008",
"8 	c #5B4236",
"9 	c #ECB69E",
"0 	c #9C6C45",
"q 	c #A46F50",
"w 	c #C69172",
"e 	c #9D6849",
"r 	c #AD7859",
"t 	c #663012",
"y 	c #7E4B35",
"u 	c #927054",
"i 	c #2B1A0A",
"p 	c #8A8386",
"a 	c #241C14",
"s 	c #140600",
"d 	c #966D50",
"f 	c #FFB180",
"g 	c #FCAF8E",
"h 	c #DB9070",
"j 	c #F5A989",
"k 	c #EA9E7E",
"l 	c #A45838",
"z 	c #F8B090",
"x 	c #E2966E",
"c 	c #F2BD93",
"v 	c #32170E",
"b 	c #965F2A",
"n 	c #F3A06C",
"m 	c #E59C65",
"M 	c #CC8645",
"N 	c #A45A1B",
"B 	c #F0A86D",
"V 	c #F5B06F",
"C 	c #DF9B5C",
"Z 	c #F8A568",
"A 	c #E0945A",
"S 	c #CA9055",
"D 	c #7A2E00",
"F 	c #6E3404",
"G 	c #DA9C6A",
"H 	c #B06D3D",
"J 	c #B47240",
"K 	c #B67852",
"L 	c #682E00",
"P 	c #A95F26",
"I 	c #FAAB68",
"U 	c #F6B172",
"Y 	c #F8B47E",
"T 	c #A45E3E",
"R 	c #E9A06C",
"E 	c #E29964",
"W 	c #FCB681",
"Q 	c #E29E68",
"! 	c #EB9C5A",
"~ 	c #FFB576",
"^ 	c #B5A18D",
"/ 	c #CF8C55",
"( 	c #CD8654",
") 	c #CA804F",
"_ 	c #C37547",
"` 	c #ECA673",
"' 	c #ECAA75",
"] 	c #D88B50",
"[ 	c #EEA66C",
"{ 	c #D3B6A5",
"} 	c #DE804B",
"| 	c #8E4C1A",
" .	c #6E3307",
"..	c #A6683C",
"X.	c #B36F46",
"o.	c #763309",
"O.	c #C98A5F",
"+.	c #905327",
"@.	c #E29460",
"#.	c #CF8958",
"$.	c #B99C8B",
"%.	c #C87040",
"&.	c #B57849",
"*.	c #9F5926",
"=.	c #9E5622",
"-.	c #BA6E39",
";.	c #C1763F",
":.	c #9A521D",
">.	c #C37F4A",
",.	c #A45C31",
"<.	c #945833",
"1.	c #CEB2A0",
"2.	c #B07E5C",
"3.	c #B47656",
"4.	c #B87955",
"5.	c #BD7F56",
"6.	c #B97C50",
"7.	c #C0825A",
"8.	c #B67C55",
"9.	c #B38260",
"0.	c #B7A89A",
"q.	c #6D4D34",
"w.	c #472D14",
"e.	c #F9AE6F",
"r.	c #FFAA6E",
"t.	c #EC9760",
"y.	c #F4A474",
"u.	c #F6A877",
"i.	c #F2B184",
"p.	c #6E4A2A",
"a.	c #7E786C",
"s.	c #A79C8F",
"d.	c #332210",
"f.	c #362E23",
"g.	c #CA8654",
"h.	c #F9B474",
"j.	c #FFA467",
"k.	c #FFA36B",
"l.	c #FFA777",
"z.	c #FFA76D",
"x.	c #A67148",
"c.	c #5A5243",
"v.	c #4D4434",
"b.	c #180A00",
"n.	c #1A0D05",
"m.	c #AA6B52",
"M.	c #BC7A5C",
"N.	c #C27558",
"B.	c #BC784C",
"V.	c #673C20",
"C.	c #827870",
"Z.	c #3D2C1A",
"A.	c #B7836F",
"S.	c #B48162",
"D.	c #B3835D",
"F.	c #AD836E",
"G.	c #2C150F",
"  . X o O + @ @ # O o $ % & & & ",
"* . = - ; : > , < 1 2 3 4 5 & & ",
"6 7 8 9 0 q w e r t y u i p & & ",
"a s d f g h j k l z x c v & & & ",
"& & b n m M N B V C Z A & & & & ",
"& & S D F G H J K L P I & & & & ",
"& & U m Y T R E W Q ! ~ & & & & ",
"& ^ Z / Q ( ) _ ` ' ] [ & & & & ",
"& { } |  ...X.o.O.+.@.#.& & & & ",
"& $.%.&.*.=.-.;.:.>.,.<.& & & & ",
"& 1.0 2.3.4.5.6.7.K 8.9.& & & & ",
"& 0.q.w.Q B e.! r.t.y.u.i.p.a.& ",
"& s.d.f.g.h.I j.j.k.l.z.r.x.c.& ",
"& v.b.n.m.M.N.N.N.N._ _ B.V.C.& ",
"& & Z.n.A.S.2.D.9.S.S.S.F.G.& & ",
"& & & & & & & & & & & & & & & & "};
