/* XPM */
static char * attr_close_xpm[] = {
"16 16 79 1",
" 	c #6E6354",
".	c #3A2818",
"X	c #CEAE94",
"o	c #E8B091",
"O	c #F4AA86",
"+	c #EC9E78",
"@	c #E69872",
"#	c #FAAC86",
"$	c #4A2602",
"%	c #4A3C27",
"&	c None",
"*	c #504432",
"=	c #8A664F",
"-	c #FFC49F",
";	c #E6BEA6",
":	c #A47E67",
">	c #E3BDA6",
",	c #D7B19A",
"<	c #C49E87",
"1	c #B88E75",
"2	c #FCD3AE",
"3	c #FCCCA4",
"4	c #220B00",
"5	c #928C8C",
"6	c #2C2617",
"7	c #161008",
"8	c #5B4236",
"9	c #ECB69E",
"0	c #9C6C45",
"q	c #A46F50",
"w	c #C69172",
"e	c #9D6849",
"r	c #AD7859",
"t	c #663012",
"y	c #7E4B35",
"u	c #927054",
"i	c #2B1A0A",
"p	c #8A8386",
"a	c #241C14",
"s	c #140600",
"d	c #966D50",
"f	c #FFB180",
"g	c #FCAF8E",
"h	c #DB9070",
"j	c #F5A989",
"k	c #EA9E7E",
"l	c #A45838",
"z	c #F8B090",
"x	c #E2966E",
"c	c #F2BD93",
"v	c #32170E",
"b	c #965F2A",
"n	c #F3A06C",
"m	c #E59C65",
"M	c #CC8645",
"N	c #A45A1B",
"B	c #F0A86D",
"V	c #F5B06F",
"C	c #DF9B5C",
"Z	c #F8A568",
"A	c #E0945A",
"S	c #CA9055",
"D	c #7A2E00",
"F	c #6E3404",
"G	c #DA9C6A",
"H	c #B06D3D",
"J	c #B47240",
"K	c #B67852",
"L	c #682E00",
"P	c #A95F26",
"I	c #FAAB68",
"U	c #F6B172",
"Y	c #F8B47E",
"T	c #A45E3E",
"R	c black",
"E	c #FCB681",
"W	c #E29E68",
"Q	c #EB9C5A",
"!	c #FFB576",
" .XoO+@@#Oo$%&&&",
"*.=-;:>,<12345&&",
"67890qwertyuip&&",
"asdfghjklzxcv&&&",
"&&bnmMNBVCZA&&&&",
"&&SDFGHJKLPI&&&&",
"&&UmYTRREWQ!&&&&",
"&&&&&&RR&&&&&&&&",
"&&&&RRRRRR&&&&&&",
"&&&&&RRRR&&&&&&&",
"&&&&&&RR&&&&&&&&",
"&&&&&&&&&&&&&&&&",
"&&&&&&&&&&&&&&&&",
"&&&&&&&&&&&&&&&&",
"&&&&&&&&&&&&&&&&",
"&&&&&&&&&&&&&&&&"};
