/* XPM */
static char * description_xpm[] = {
"15 15 6 1",
" 	c None",
".	c gray43",
"X	c #FFFFFFFF9999",
"o	c white",
"O	c black",
"+	c grey80",
" ..........    ",
" .XXXXXXXX..o  ",
" .XOOOOXXX.+.  ",
" .XOXXXOXX.+.  ",
" .XOXXXXOX.+.  ",
" .XOXXXXOX.+.  ",
" .XOXXXXOX.+.  ",
" .XOXXXXOX.+.  ",
" .XOXXXXOX.+.  ",
" .XOXXXOXX.+.  ",
" .XOOOOXXX.+.  ",
" .XXXXXXXX.+.  ",
" ..........+.  ",
" .++++++++++.  ",
"  ...........  "};
