/* XPM */
static char *magick[] = {
/* columns rows colors chars-per-pixel */
"16 16 41 1",
"  c #000000",
". c #2f0010",
"X c #300010",
"o c #400f20",
"O c #4f072f",
"+ c #4f102f",
"@ c #50002f",
"# c #501830",
"$ c #403830",
"% c #600730",
"& c #60073f",
"* c #60083f",
"= c #6f083f",
"- c #700840",
"; c #7f1f4f",
": c #6f2740",
"> c #6f274f",
", c #7f7760",
"< c #7f7f6f",
"1 c #90404f",
"2 c #8f4360",
"3 c #8f4860",
"4 c #8f506f",
"5 c #904f60",
"6 c #90506f",
"7 c #8f686f",
"8 c #bf7f50",
"9 c #cf9050",
"0 c #cf975f",
"q c #d0985f",
"w c #8f8f80",
"e c #bfb89f",
"r c #c0c0a0",
"t c #cfcfaf",
"y c #d0d0b0",
"u c #dfd8bf",
"i c #efe7c0",
"p c #f0f8df",
"a c #fff8d0",
"s c LightYellow",
"d c None",
/* pixels */
"dddddddddddddddd",
"dddddddddddddddd",
"dddddddddddddddd",
"dddd,yywdddddddd",
"ddd$<ussdddyywwd",
"ddd<<rsspdwppaXd",
"dd,<<rssspppaoXd",
"do<<<epspppaaXXd",
"dO-;7etpppaa+XXd",
"d.00---&6iaaXXXd",
"d.991-==553:XXXd",
"d.&8=-65533:XXXd",
"d.*-6453333#XXXd",
"d.6552>%&%%@XXXd",
"ddd..%&%%%%@XXdd",
"dddddddd.O%@.ddd"
};
