/* XPM */
static char * equal_xpm[] = {
/* width height num_colors chars_per_pixel */
"16 14 22 1",
/* colors */
" 	c None",
".	c #ffcd00",
"X	c #fecb00",
"o	c #f4f4f4",
"O	c #fecc00",
"+	c gray75",
"@	c gray68",
"#	c #ffcb00",
"$	c #d8d8d8",
"%	c gray48",
"&	c gray42",
"*	c gray44",
"=	c #f8f8f8",
"-	c gray91",
";	c gray90",
":	c #e6e6e6",
">	c #f3f3f3",
",	c #efefef",
"<	c gray64",
"1	c #6d6d6d",
"2	c #6c6c6c",
"3	c #555555",
/* pixels */
"                ",
"                ",
"                ",
".XXXXXXXXXXXXXo ",
"OOOOOOOOOOOOOO+ ",
"OOOOOOOOOOOOOO@ ",
"#XXXXXXXXXXXXX@ ",
"$%&&&&&&&&&&&*+ ",
"=-;;;;;;;;;;;:> ",
" OOOOOOOOOOOOO  ",
",XXXXXXXXXXXXX< ",
";OOOOOOOOOOOOO1 ",
";OOOOOOOOOOOOO2 ",
"-%333333333333% "};
