/* XPM */
static char * identity_xpm[] = {
"16 14 28 1",
" 	c None",
".	c gray43",
"X	c palegreen3",
"o	c white",
"O	c #FECC00",
"+	c #E3BA14",
"@	c #E6CC16",
"#	c gray75",
"$	c #8A6F00",
"%	c gray68",
"&	c #E4B914",
"*	c #E6CB16",
"=	c #8A6E00",
"-	c gray63",
";	c gray77",
":	c #7A897A",
">	c #6E7D6E",
",	c #3A3A3A",
"<	c #728172",
"1	c gray69",
"2	c black",
"3	c gray60",
"4	c #6D6D6D",
"5	c #6C6C6C",
"6	c gray48",
"7	c gray35",
"8	c #5C6B5C",
"9	c #555555",
"   ..XXXXX..   o",
"  .XXXXXXXXX.  o",
"O+@@@@@@@@@@@+#o",
"O+@@@@$$$$@@@+%o",
"&****=****=***-o",
";:>>>,>>>>>>><1o",
".XXXX2XXXXXXXX.o",
".XXXX2XXXXXXXX.o",
".****=****=***3o",
" +@@@@$$$$@@@+4o",
" +@@@@@@@@@@@+5o",
" 67888888888796o",
"   ..XXXXX..   o",
"     .....     o"};
