/* XPM */
static char * list_member_xpm[] = {
"15 15 4 1",
" 	c None",
".	c gray43",
"X	c #a5bbdc",
"o	c black",
"               ",
"               ",
"  ...........  ",
"  .XXXXXXXXX.  ",
"  .XooXXXooX.  ",
"  .XoooXoooX.  ",
"  .XoooooooX.  ",
"  .XooXoXooX.  ",
"  .XooXXXooX.  ",
"  .XooXXXooX.  ",
"  .XooXXXooX.  ",
"  .XXXXXXXXX.  ",
"  ...........  ",
"               ",
"               "};
