/* XPM */
static char * scratch_xpm[] = {
"16 16 210 3",
"   	c #00004103C71B",
".  	c #30C234D35965",
"X  	c #30C228A22081",
"o  	c #00003CF338E3",
"O  	c #000041036185",
"+  	c #00004103BEFB",
"@  	c #208141036185",
"#  	c #CF3CCB2B9E79",
"$  	c #51441C710000",
"%  	c #000030C230C2",
"&  	c #000041038E38",
"*  	c #00003CF3C71B",
"=  	c #000034D38E38",
"-  	c #30C2410330C2",
";  	c #69A63CF31861",
":  	c None",
">  	c #69A675D679E7",
",  	c #AEBA79E71861",
"<  	c #492428A21861",
"1  	c #00002CB228A2",
"2  	c #18612CB24924",
"3  	c #38E34D342081",
"4  	c #C71BBEFB79E7",
"5  	c #618538E31861",
"6  	c #208130C22081",
"7  	c #000034D36185",
"8  	c #000034D39658",
"9  	c #59655D754924",
"0  	c #BEFB9A6928A2",
"q  	c #596524920000",
"w  	c #79E775D679E7",
"e  	c #00002CB2A699",
"r  	c #86177DF769A6",
"t  	c #AEBA9E7938E3",
"y  	c #61852CB22081",
"u  	c #A6998A288617",
"i  	c #AEBAAAAA9E79",
"p  	c #C71BC30B9E79",
"a  	c #CF3CC30B5144",
"s  	c #B6DAAAAA4103",
"d  	c #71C641032081",
"f  	c #618559652081",
"g  	c #BEFB965828A2",
"h  	c #69A62CB21040",
"j  	c #492441034103",
"k  	c #8E3886178E38",
"l  	c #20812CB24103",
"z  	c #B6DAB6DA8E38",
"x  	c #AEBAAAAA71C6",
"c  	c #861771C64924",
"v  	c #79E745141040",
"b  	c #CF3CCF3C6185",
"n  	c #38E31C710000",
"m  	c #596565952081",
"M  	c #D75CD75C8617",
"N  	c #B6DAB2CA30C2",
"B  	c #71C649240000",
"V  	c #492445144103",
"C  	c #8E388A288E38",
"Z  	c #861782078617",
"A  	c #20812CB271C6",
"S  	c #9E797DF74924",
"D  	c #B6DAAAAA9E79",
"F  	c #BEFB9A699E79",
"G  	c #A6998E3869A6",
"H  	c #5144451428A2",
"J  	c #CF3CCB2B6185",
"K  	c #41032CB20000",
"L  	c #86179E799E79",
"P  	c #A69982074103",
"I  	c #A69979E75144",
"U  	c #AEBAA2894103",
"Y  	c #51443CF330C2",
"T  	c #00003CF3B6DA",
"R  	c #596545144924",
"E  	c #CF3CC71B8E38",
"W  	c #69A6451428A2",
"Q  	c #104024922081",
"!  	c #AEBAB6DA5144",
"~  	c #AEBA861769A6",
"^  	c #C71BC30B71C6",
"/  	c #9658820730C2",
"(  	c #965869A64103",
")  	c #30C224922081",
"_  	c #082000000000",
"`  	c #BEFB8E3838E3",
"'  	c #69A64D3430C2",
"]  	c #28A234D36185",
"[  	c #965875D64924",
"{  	c #D75CD34C8E38",
"}  	c #596541032081",
"|  	c #208130C20820",
" . 	c #71C679E738E3",
"...	c #E79DE38DD75C",
"X..	c #D75CD34C38E3",
"o..	c #A6999A696185",
"O..	c #71C645140820",
"+..	c #596530C20000",
"@..	c #61853CF31040",
"#..	c #AEBA79E728A2",
"$..	c #AEBA8A2869A6",
"%..	c #861741031040",
"&..	c #BEFBB6DA4924",
"*..	c #D75CC71B6185",
"=..	c #CF3CCF3C79E7",
"-..	c #CF3CCB2BA699",
";..	c #C71BA2894924",
":..	c #E79DE79DD75C",
">..	c #A6999E7979E7",
",..	c #A69979E71861",
"<..	c #C71BAEBA28A2",
"1..	c #A6998E3830C2",
"2..	c #9E7992484924",
"3..	c #AEBAAAAA4924",
"4..	c #AEBAAAAA5965",
"5..	c #9E797DF728A2",
"6..	c #A69982076185",
"7..	c #38E31C710820",
"8..	c #38E33CF32081",
"9..	c #8E3875D64924",
"0..	c #8E387DF74924",
"q..	c #AEBA9E795965",
"w..	c #69A665954924",
"e..	c #79E738E30000",
"r..	c #410324922081",
"t..	c #514420812081",
"y..	c #618538E31040",
"u..	c #965871C65144",
"i..	c #596528A20000",
"p..	c #492414510000",
"a..	c #00002CB230C2",
"s..	c #71C65D7528A2",
"d..	c #CF3CC71BA699",
"f..	c #596545142081",
"g..	c #8E38B2CA9658",
"h..	c #9E796DB64103",
"j..	c #596538E32081",
"k..	c #965871C64103",
"l..	c #596530C20820",
"z..	c #B6DAAEBA71C6",
"x..	c #8E385D7530C2",
"c..	c #104010401040",
"v..	c #71C675D65965",
"b..	c #492449244924",
"n..	c #71C675D671C6",
"m..	c #BEFBAAAA8617",
"M..	c #D75CD34CA699",
"N..	c #B6DA8E381861",
"B..	c #38E320810000",
"V..	c #410345144103",
"C..	c #C71BA6995144",
"Z..	c #410324920000",
"A..	c #79E74D346185",
"S..	c #CF3CBEFBBEFB",
"D..	c #AEBA69A638E3",
"F..	c #C71BAAAA5144",
"G..	c #514430C22081",
"H..	c #082024929E79",
"J..	c #86177DF738E3",
"K..	c #BEFB9A696185",
"L..	c #CF3CC71B8617",
"P..	c #79E775D65965",
"I..	c #79E765954924",
"U..	c #B6DAAEBA6185",
"Y..	c #8617514428A2",
"T..	c #9E796DB61040",
"R..	c #BEFBBAEA71C6",
"E..	c #AEBA9E791861",
"W..	c #A69979E71040",
"Q..	c #79E775D64924",
"!..	c #00002CB29E79",
"~..	c #79E779E74103",
"^..	c #B6DA7DF728A2",
"/..	c #79E751444103",
"(..	c #C71BA69979E7",
")..	c #BEFBAEBA9E79",
"_..	c #BEFBBEFB8617",
"`..	c #C71BB6DA5965",
"'..	c #B6DA92484924",
"]..	c #6185492428A2",
"[..	c #596551442081",
"{..	c #A69971C628A2",
"}..	c #514430C20820",
"|..	c #8617820769A6",
" X.	c #514461858617",
".X.	c #B6DA82071861",
"XXX	c #51441C710820",
"oXX	c #61855D756185",
"OXX	c #618545144103",
"+XX	c #514408200820",
"@XX	c #8E38555530C2",
"#XX	c #BEFBBAEA6185",
"$XX	c #618534D30820",
"%XX	c #492438E330C2",
"&XX	c #69A655555965",
"*XX	c #9E799E7969A6",
"=XX	c #9E795D751040",
"-XX	c #69A659654924",
";XX	c #596551445144",
":XX	c #61854D344103",
">XX	c #69A665956185",
",XX	c #861745144103",
"<XX	c #C71BAEBA5144",
"1XX	c #A6999E79A699",
"2XX	c #69A65D756185",
"3XX	c #79E771C671C6",
"4XX	c #514430C21861",
"5XX	c #AEBA8E3838E3",
"6XX	c #514434D32081",
"7XX	c #9E799A699E79",
"   .  X  o  O  +  @  #  $  %  &  *  =  -  ;  :  ",
"*  >  ,  <  1  2  3  4  5  6  7  8  9  0  q  w  ",
"   e  r  t  y  u  i  p  a  s  d  f  g  h  j  k  ",
"+  +  l  z  x  c  v  b  n  m  M  N  B  V  C  Z  ",
"   A  S  D  F  G  H  J  K  L  P  I  U  Y  Z  :  ",
"T  R  E  W  Q  !  ~  ^  /  (  )  _  `  '  :  :  ",
"]  [  {  }  |   . ...X..o..O..+..@..#..$..%..:  ",
"&..*..=..-..;..P  :..X..>..O..,..<..1..2..3..4..",
"$  5..6..7..8..9..0..q..w..e..r..t..y..u..i..p..",
"a..s..d..f..g..h..j..k..l..z..x..c..v..d  b..n..",
"+  .  m..M..N..B..V..C..Z..A..S..D..F..G..:  :  ",
"   H..J..K..L..P..I..U..Y..T..R..E..W..K  Q..:  ",
"!..~..^..n  /..(..).._..`..'..]..[..o..{..}..|..",
" X..X.XXXoXXOXX+XX@XX#XX$XX%XX&XXC  :  *XX=XX-XX",
";XX:XX>XXC  :  :  ,XX<XXj..1XX:  :  :  :  2XX3XX",
":  :  :  :  :  :  4XX5XX6XX7XX:  :  :  :  :  :  "};
