/* XPM */
static char * newmultiple_xpm[] = {
"16 16 5 1",
" 	s None	c None",
".	c yellow",
"X	c #808080808080",
"o	c black",
"O	c white",
" .  X.  o       ",
" X. XO Xooo     ",
"  X.X.X.oOooo   ",
"  .X.OXXoOOooo  ",
" XXXO..OooooOoo ",
"   OXOOXOOOoooOo",
" X  X.OOOOOoOooo",
"    XOooooOoOoOo",
"    oOOOOOOoOoOo",
"    oOooooOoOoOo",
"    oOOOOOOoOoOo",
"    ooooooooOoOo",
"     oOOOOOOOoOo",
"     oooooooooOo",
" OOO  oOOOOOOOOo",
"      oooooooooo"};
