/* XPM */
static char * part_xpm[] = {
"15 15 4 1",
" 	c None",
".	c gray43",
"X	c #caff9e",
"o	c black",
"     .....     ",
"    .XXXXX.    ",
"   .XXXXXXX.   ",
"  .XXXXXXXXX.  ",
" .XXXooooXXXX. ",
".XXXXoXXXoXXXX.",
".XXXXoXXXoXXXX.",
".XXXXoXXXoXXXX.",
".XXXXooooXXXXX.",
".XXXXoXXXXX..X.",
" .XXXoXXXX.XX..",
"  .XXoXXX.XooX.",
"   .XXXXX.XoXX.",
"    .XXXXX.XX. ",
"     ........  "};
