/* XPM */
static char * part_xpm[] = {
"15 15 4 1",
" 	c None",
".	c gray43",
"X	c #caff9e",
"o	c black",
"               ",
" ............. ",
" .XXXXXXXXXXX. ",
"  .XXoooooXX.  ",
"  .XXo...o.X.  ",
"   .Xo.XXo..   ",
"   .Xo.XXo..   ",
"    .ooooo.    ",
"    .o...X.    ",
"     o.XX.     ",
"     o.XX.     ",
"      .X.      ",
"      .X.      ",
"       .       ",
"       .       "};
