/* XPM */
static char * restriction_xpm[] = {
"15 15 4 1",
" 	c None",
".	c gray43",
"X	c #FFFFFFFF9999",
"o	c black",
"     .....     ",
"   ..XXXXX..   ",
"  .XXXXXXXXX.  ",
"  .XXXXXXXXX.  ",
"o .XXooooXXX. o",
"oo.XXoXXXoXX.oo",
"oooXXoXXXoXXooo",
"ooooXooooXXoooo",
"oooXXoXoXXXXooo",
"oo.XXoXXoXXX.oo",
"o .XXoXXXoXX. o",
"  .XXXXXXXXX.  ",
"  .XXXXXXXXX.  ",
"   ..XXXXX..   ",
"     .....     "};
