/* XPM */
static char *magick[] = {
/* columns rows colors chars-per-pixel */
"16 16 19 1",
"  c #000000",
". c #303030",
"X c #004040",
"o c #585858",
"O c #000080",
"+ c #0000ff",
"@ c #008080",
"# c #ffa858",
"$ c #808080",
"% c #a0a0a0",
"& c #8080ff",
"* c #ffdca8",
"= c #c3c3c3",
"- c #dcdcdc",
"; c #c0c0ff",
": c #c0ffff",
"> c #ffc0c0",
", c #ffffc0",
"< c #ffffff",
/* pixels */
"                ",
" *>*>         * ",
" >              ",
"        >*>*>   ",
"     >*>*>*>*>* ",
"   >,---==%%%*> ",
" >*--<-,->*>#%* ",
" *-<<--<---==#% ",
" -<        >==% ",
"   <<::oo%&   > ",
" -<<;:o  X&$=%  ",
" -<<&&.  .$@=%% ",
"  -<%$@..o+$=%  ",
" > -=&o&@$$&% % ",
" *=  %&oO&$  %# ",
"                "
};
