/* XPM */
static char * think_xpm[] = {
/* columns rows colors chars-per-pixel */
"16 16 22 1",
" 	c None",
".	c black",
"X	c gray42",
"o	c #393939",
"O	c gray13",
"+	c #5A5A5A",
"@	c #7B7B7B",
"#	c gray71",
"$	c #C6C6C6",
"%	c gray45",
"&	c gray16",
"*	c gray32",
"=	c gray68",
"-	c gray97",
";	c gray39",
":	c #848484",
">	c #CECECE",
",	c gray55",
"<	c #313131",
"1	c #101010",
"2	c gray29",
"3	c gray84",
/* pixels */
"                ",
"                ",
"                ",
"                ",
" ...............",
" ...............",
"     XoOo+@#    ",
"    $%oO&*%=-   ",
"    =;oO&o+:#   ",
"   >,*<OO&o+,>  ",
"   #Xo&1O&<2%#  ",
"  3,+<OOO&&o;,> ",
"  $:2<O1OO&o2@# ",
"                ",
"                ",
"                "};
