/* XPM */
static char * wnclass_xpm[] = {
"15 15 4 1",
" 	c None",
".	c gray43",
"X	c #FFFFFFFF9999",
"o	c black",
"     .....     ",
"   ..XXXXX..   ",
"  .XXXXXXXXX.  ",
" .XXXoXXXoXXX. ",
" .XoXooXXoXoX. ",
".XXoXoXoXoXoXX.",
".XXoXoXXooXoXX.",
".XXoXoXoXoXoXX.",
".XXoXXXoXXXoXX.",
".XXoXXXoXXXoXX.",
" .XXoXoXoXoXX. ",
" .XXXoXXXoXXX. ",
"  .XXXXXXXXX.  ",
"   ..XXXXX..   ",
"     .....     "};
